# xmcd CD database file
#
# Track frame offsets:
#	150
#	14302
#	28457
#	41832
#	55880
#	70677
#	86587
#	100590
#	114792
#	126700
#	135587
#	152395
#	166392
#	176350
#	191850
#	205647
#	219160
#	234107
#	243130
#
# Disc length: 3449 seconds
#
# Revision: 3
# Processed by: cddbd v1.5.2PL0 Copyright (c) Steve Scherf et al.
# Submitted via: CDex 1.51
#
DISCID=f40d7713
DTITLE=Frank Sinatra - Frank Sinatra 4 Disk Set
DYEAR=1900
DGENRE=Jazz
TTITLE0=April Played the Fiddle
TTITLE1=Begin the Beguine
TTITLE2=In the Blue of the Evening
TTITLE3=Light a Candle in the Chapel
TTITLE4=A Lovely Way to Spend the Evening
TTITLE5=Ol'Man River
TTITLE6=Tea for Two
TTITLE7=These Foolish Things (Remind Me of You)
TTITLE8=You Lucky People
TTITLE9=Tenderly
TTITLE10=This Love of Mine
TTITLE11=Violets for Your Furs
TTITLE12=Love Me or Leave Me
TTITLE13=Laura
TTITLE14=Dream
TTITLE15=Whispering
TTITLE16=Over the Rainbow
TTITLE17=On the Sunny Side of the Street
TTITLE18=You'll Never Walk Alone
EXTD=
EXTT0=
EXTT1=
EXTT2=
EXTT3=
EXTT4=
EXTT5=
EXTT6=
EXTT7=
EXTT8=
EXTT9=
EXTT10=
EXTT11=
EXTT12=
EXTT13=
EXTT14=
EXTT15=
EXTT16=
EXTT17=
EXTT18=
PLAYORDER=
